<?xml version="1.0" standalone="no"?>
<!DOCTYPE svg PUBLIC "-//W3C//DTD SVG 20010904//EN"
 "http://www.w3.org/TR/2001/REC-SVG-20010904/DTD/svg10.dtd">
<svg version="1.0" xmlns="http://www.w3.org/2000/svg"
 width="1024.000000pt" height="1024.000000pt" viewBox="0 0 1024.000000 1024.000000"
 preserveAspectRatio="xMidYMid meet">

<g transform="translate(0.000000,1024.000000) scale(0.100000,-0.100000)"
fill="#000000" stroke="none">
<path d="M5066 8820 c-347 -40 -603 -157 -792 -364 -36 -39 -79 -100 -97 -136
-28 -57 -32 -74 -32 -150 0 -114 23 -171 138 -339 l92 -135 110 -26 c61 -15
135 -38 165 -51 74 -31 213 -111 275 -158 73 -55 141 -87 236 -112 111 -29
300 -23 397 11 82 29 75 35 -8 9 -93 -29 -216 -35 -319 -15 -114 21 -125 36
-25 30 l79 -4 -64 15 c-91 21 -96 26 -20 20 52 -4 68 -2 72 9 4 9 30 16 79 21
96 9 342 45 348 52 3 2 -36 2 -85 -1 -50 -3 -82 -3 -72 0 9 3 15 9 13 13 -3 4
32 16 77 26 58 12 76 20 63 25 -31 11 118 61 186 63 88 2 166 -54 221 -157 32
-61 29 -161 -11 -307 -18 -64 -32 -131 -32 -150 0 -21 16 -67 40 -115 64 -124
74 -170 67 -304 -6 -126 -16 -186 -83 -490 -64 -295 -72 -319 -136 -390 -30
-33 -93 -114 -139 -180 -250 -359 -276 -390 -368 -438 -71 -38 -140 -52 -250
-52 -234 0 -311 49 -503 320 -107 152 -201 273 -263 341 -55 59 -74 112 -133
380 -108 483 -115 573 -57 739 31 88 38 123 43 213 l5 108 28 -27 28 -26 -24
58 c-51 127 -51 242 0 417 14 48 25 93 25 100 -1 23 -39 -38 -61 -97 -31 -80
-35 -57 -9 49 12 48 19 89 17 92 -3 2 -16 -29 -30 -69 -28 -81 -34 -61 -12 42
7 36 12 66 10 68 -2 2 -13 -24 -26 -57 -12 -34 -24 -60 -26 -57 -2 2 1 32 7
66 13 72 8 87 -14 39 l-16 -34 5 55 c4 43 3 50 -5 31 -15 -34 -21 -21 -10 20
15 51 11 58 -11 19 l-20 -35 6 50 c6 46 5 49 -9 30 -8 -11 -16 -26 -16 -34 0
-8 -3 -12 -6 -8 -4 3 -1 27 5 53 13 51 7 72 -8 30 -16 -41 -24 -31 -17 22 5
46 5 47 -9 17 l-14 -30 -1 27 c0 15 4 38 10 53 12 32 -6 24 -21 -9 -8 -17 -9
-15 -5 14 2 19 7 44 11 55 6 16 3 16 -14 -5 l-22 -25 7 30 c4 17 11 41 16 54
13 37 2 37 -33 0 -81 -87 -108 -212 -90 -416 14 -148 77 -436 158 -718 4 -16
-1 -14 -28 11 -112 103 -158 83 -144 -61 16 -174 55 -311 137 -485 51 -109 75
-143 120 -166 20 -10 29 -24 33 -52 10 -62 85 -437 94 -469 6 -20 4 -51 -5
-89 -7 -33 -14 -71 -14 -86 0 -108 479 -603 733 -756 67 -40 159 -64 215 -56
142 21 651 496 798 745 l41 69 21 -57 c31 -86 42 -133 42 -184 0 -49 -7 -80
-114 -463 -37 -132 -65 -244 -63 -249 1 -5 22 42 46 104 56 149 163 401 168
395 2 -2 -3 -46 -11 -99 -9 -52 -29 -189 -46 -304 -108 -748 -271 -1426 -586
-2448 l-19 -60 -6 700 c-6 798 2 724 -109 1077 l-43 137 73 110 c40 61 78 115
84 119 7 6 76 -11 178 -43 143 -44 165 -49 157 -33 -18 33 -240 249 -329 321
-47 37 -116 84 -155 103 -66 32 -76 34 -176 35 -97 1 -111 -1 -160 -26 -91
-45 -198 -134 -317 -265 -117 -129 -167 -190 -141 -175 7 5 66 51 131 102 64
51 121 93 126 93 15 0 222 -288 222 -309 0 -6 -31 -73 -69 -149 -38 -76 -76
-162 -85 -192 -27 -90 -37 -232 -50 -705 l-12 -450 -51 160 c-77 239 -96 306
-303 1120 -110 430 -295 1243 -285 1253 14 15 88 -160 200 -476 32 -89 59
-161 61 -159 4 3 -134 443 -176 562 -40 112 -51 259 -26 340 8 27 14 51 12 52
-2 2 -54 -53 -116 -123 -141 -158 -199 -201 -316 -238 -538 -166 -1279 -436
-1539 -561 -103 -49 -145 -83 -145 -118 0 -61 312 -816 402 -973 53 -93 198
-307 243 -359 14 -16 -4 14 -40 68 -37 53 -63 97 -60 97 17 0 357 -363 604
-645 160 -181 158 -180 132 -127 -20 38 -135 320 -292 712 -31 80 -56 146 -54
148 2 2 20 -29 41 -69 93 -186 338 -599 355 -599 37 0 17 39 -200 390 -60 99
-72 109 158 -144 73 -81 135 -145 138 -143 2 3 -8 35 -23 71 -14 37 -25 68
-23 70 2 2 31 -27 64 -63 235 -262 320 -352 323 -343 1 5 -52 162 -118 348
-67 186 -124 348 -127 359 -5 21 27 -36 190 -335 343 -631 577 -1012 928
-1510 178 -252 359 -492 374 -497 6 -2 40 41 76 94 37 54 214 312 395 574 181
262 385 559 454 660 203 299 437 615 448 605 1 -2 -4 -21 -12 -42 -27 -70
-138 -425 -134 -429 5 -5 141 159 312 377 80 103 151 190 156 193 5 3 -6 -28
-25 -70 -19 -41 -33 -75 -31 -75 3 0 48 51 102 113 142 162 344 377 355 377 5
0 -2 -24 -16 -52 -38 -76 -1 -29 74 97 33 55 67 109 76 120 18 23 23 36 -82
-215 -61 -144 -183 -457 -183 -468 0 -2 52 72 116 164 147 213 356 493 447
598 70 82 107 113 70 60 -27 -40 -35 -54 -29 -54 9 0 93 127 179 272 47 80
109 181 137 225 46 70 50 74 45 43 -3 -19 -14 -96 -25 -171 -11 -75 -25 -151
-30 -169 -18 -62 -3 -41 52 72 166 340 216 570 143 657 -25 29 -136 80 -467
215 -315 129 -857 330 -1213 451 l-170 57 -60 80 c-33 43 -92 113 -131 155
-62 66 -73 83 -78 122 -3 25 -13 68 -22 94 -15 44 -15 54 0 105 27 100 86 417
86 465 0 39 3 47 19 47 21 0 82 63 106 110 36 70 88 221 111 319 13 58 22 106
20 108 -1 2 -25 -24 -51 -58 -36 -45 -52 -77 -62 -122 -17 -72 -41 -120 -83
-167 l-31 -35 5 40 c3 22 6 64 6 93 0 28 5 52 10 52 6 0 10 -12 10 -26 0 -36
12 -24 64 64 25 43 66 104 90 136 25 32 48 72 50 89 14 88 16 127 9 126 -4 0
-25 -36 -46 -80 -41 -84 -146 -249 -159 -249 -23 0 13 155 53 231 18 33 53 81
78 106 59 58 16 39 -47 -21 -39 -37 -43 -39 -38 -16 4 14 19 90 35 170 15 80
40 174 56 210 67 159 76 193 82 295 5 92 -6 261 -23 345 -7 32 -6 34 9 21 15
-12 17 -9 17 33 0 51 4 54 34 29 l20 -18 -18 30 c-49 79 -255 312 -392 445
-154 149 -276 221 -432 256 -80 18 -486 27 -606 14z m-78 -992 c7 -7 33 -15
60 -19 l47 -6 -55 -2 c-52 -1 -80 10 -80 31 0 12 14 10 28 -4z m1037 -57 c-18
-15 -157 -68 -335 -126 -165 -54 -182 -58 -296 -63 -67 -2 -157 -1 -200 4
l-79 8 85 8 c47 4 126 12 175 16 l90 8 -110 17 c-60 10 -111 19 -112 21 -2 1
81 6 185 9 212 8 328 25 487 72 61 18 112 33 115 34 2 0 0 -3 -5 -8z m-782
-48 c-29 -2 -78 -2 -110 0 -32 2 -8 3 52 3 61 0 87 -1 58 -3z m-1257 -701 c39
-34 96 -107 118 -149 9 -18 25 -97 36 -175 10 -79 26 -181 35 -227 9 -46 13
-86 10 -90 -9 -8 -70 64 -96 111 -17 33 -59 186 -59 213 1 16 22 -25 47 -90
l23 -60 -3 81 c-3 72 -8 89 -45 158 -45 82 -112 231 -112 246 0 16 13 11 46
-18z"/>
<path d="M5575 7410 c-38 -4 -117 -6 -175 -4 -90 3 -99 2 -60 -7 55 -13 290
-6 316 9 21 13 25 13 -81 2z"/>
<path d="M4346 6707 c-24 -24 -45 -105 -32 -125 3 -5 26 -12 52 -15 29 -3 61
-16 89 -36 67 -48 89 -53 233 -52 l134 1 32 -35 33 -35 43 15 c52 18 72 9 117
-54 15 -23 31 -41 34 -41 10 0 -28 166 -45 199 -28 52 -73 78 -151 84 -38 4
-145 29 -236 56 -92 27 -192 52 -222 56 -51 7 -58 5 -81 -18z"/>
<path d="M5765 6674 c-77 -24 -179 -51 -227 -59 -77 -12 -91 -18 -118 -47 -60
-63 -73 -108 -78 -263 -2 -77 -3 -149 0 -160 3 -15 20 7 62 80 123 211 119
205 144 205 13 0 21 4 17 10 -4 6 -1 17 5 25 10 12 41 15 145 15 l133 0 47 36
c56 43 85 54 134 54 21 0 40 2 43 5 11 12 -13 100 -34 122 -34 36 -106 31
-273 -23z"/>
</g>
</svg>
